<?xml version="1.0" standalone="no"?>
<!DOCTYPE svg PUBLIC "-//W3C//DTD SVG 1.1//EN" "http://www.w3.org/Graphics/SVG/1.1/DTD/svg11.dtd" >
<svg xmlns="http://www.w3.org/2000/svg">
<metadata></metadata>
<defs>
<font id="SSUIRegular" horiz-adv-x="864" >
<font-face units-per-em="864" ascent="648" descent="-216" />
<missing-glyph horiz-adv-x="278" />
<glyph unicode="add" horiz-adv-x="598" d="M40 356v68h230v222h68v-222h230v-68h-230v-222h-68v222h-230z" />
<glyph unicode="information" d="M0 432q0 179 126.5 305.5t305.5 126.5t305.5 -126.5t126.5 -305.5t-126.5 -305.5t-305.5 -126.5t-305.5 126.5t-126.5 305.5zM360 630q0 -30 21 -51t51 -21t51 21t21 51t-21 51t-51 21t-51 -21t-21 -51zM378 162h108v306h-108v-306z" />
<glyph unicode="minus" d="M0 342v180q0 8 5 13t13 5h828q8 0 13 -5t5 -13v-180q0 -8 -5 -13t-13 -5h-828q-8 0 -13 5t-5 13z" />
<glyph unicode="close" d="M53 198q0 6 5 13l221 221l-221 221q-5 7 -5 13t5 13l127 127q7 5 13 5t13 -5l221 -221l221 221q7 5 13 5t13 -5l127 -127q5 -7 5 -13t-5 -13l-221 -221l221 -221q5 -7 5 -13t-5 -13l-127 -127q-7 -5 -13 -5t-13 5l-221 221l-221 -221q-7 -5 -13 -5t-13 5l-127 127 q-5 7 -5 13z" />
<glyph unicode="heart" d="M2.5 632q11.5 61 57.5 107q68 68 165 68t165 -68q25 -25 42 -56q17 31 42 56q68 69 165 69t166 -69q46 -46 57 -107t-18.5 -133t-99.5 -142l-299 -300q-7 -5 -13 -5q-8 0 -13 5l-299 300q-70 70 -99.5 142t-18 133z" />
<glyph unicode="alert" d="M9 130l342 684q26 50 81 50q56 0 80 -50l342 -684q23 -45 -3 -87q-27 -43 -77 -43h-684q-50 0 -77 43q-25 41 -4 87zM360 162q0 -30 21 -51t51 -21t51 21t21 51t-21 51t-51 21t-51 -21t-21 -51zM378 324h108v306h-108v-306z" />
<glyph unicode="checkmark" d="M5 401q-13 13 0 26l126 126q13 13 26 0l167 -168l383 384q13 13 26 0l126 -126q13 -13 0 -26l-522 -522q-7 -5 -13 -5t-13 5z" />
<glyph unicode="replay" d="M0 504v342q0 12 11 17q12 4 20 -4l134 -135q114 104 267 104q164 0 280 -116t116 -280t-116 -280t-280 -116q-153 0 -266 103h-1v1q-5 5 -5 12q0 8 4 12l1 1l77 77q12 12 24 0q72 -62 166 -62q104 0 178 74t74 178t-74 178t-178 74q-95 0 -165 -62l106 -105q8 -8 4 -20 q-5 -11 -17 -11h-342q-8 0 -13 5t-5 13z" />
<glyph unicode="keywords" d="M0 355.5q0 22.5 16 38.5l465 465q5 5 12 5h317q22 0 38 -16t16 -38v-317q0 -7 -5 -12l-465 -465q-16 -16 -38.5 -16t-38.5 16l-301 301q-16 16 -16 38.5zM594 675q0 -34 23.5 -57.5t57.5 -23.5t57.5 23.5t23.5 57.5t-23.5 57.5t-57.5 23.5t-57.5 -23.5t-23.5 -57.5z" />
<glyph unicode="rss" d="M0 135q0 56 39.5 95.5t95.5 39.5t95.5 -39.5t39.5 -95.5t-39.5 -95.5t-95.5 -39.5t-95.5 39.5t-39.5 95.5zM0 450v126q0 8 5 13t13 5q117 0 223.5 -45.5t184 -123t123 -184t45.5 -223.5q0 -8 -5 -13t-13 -5h-126q-8 0 -13 5t-5 13q0 172 -121 293t-293 121q-8 0 -13 5 t-5 13zM0 720v126q0 8 5 13t13 5q230 0 424.5 -113.5t308 -308t113.5 -424.5q0 -8 -5 -13t-13 -5h-126q-8 0 -13 5t-5 13q0 139 -54 266t-145.5 218.5t-218.5 145.5t-266 54q-8 0 -13 5t-5 13z" />
<glyph unicode="cart" d="M0 810q0 22 16 38t38 16h96q19 0 34 -11.5t19 -29.5l30 -121h613q9 0 14 -7q6 -6 3 -15l-110 -369q-5 -18 -19 -29.5t-33 -11.5h-431q-19 0 -33.5 11.5t-18.5 29.5l-110 445h-54q-22 0 -38 16t-16 38zM252 90q0 38 26 64t64 26t64 -26t26 -64t-26 -64t-64 -26t-64 26 t-26 64zM540 90q0 38 26 64t64 26t64 -26t26 -64t-26 -64t-64 -26t-64 26t-26 64z" />
<glyph unicode="dropdown" d="M2 692q5 10 16 10h828q11 0 16 -10q5 -11 -2 -19l-414 -504q-6 -7 -14 -7q-10 0 -14 7l-414 504q-7 8 -2 19z" />
<glyph unicode="navigate&#x20;up" d="M0 288q0 6 5 13l414 414q13 13 26 0l414 -414q13 -13 0 -26l-126 -126q-13 -13 -26 0l-275 275l-275 -275q-13 -13 -26 0l-126 126q-5 7 -5 13z" />
<glyph unicode="navigate&#x20;down" d="M5 563q-13 13 0 26l126 126q13 13 26 0l275 -276l275 276q13 13 26 0l126 -126q5 -7 5 -13t-5 -13l-414 -414q-13 -13 -26 0z" />
<glyph unicode="twitter" d="M0 162q21 -3 42 -3q115 0 220 84q-57 1 -102.5 35.5t-62.5 87.5q17 -3 33 -3q24 0 47 6q-61 12 -101.5 61t-40.5 113v2q38 -21 80 -22q-79 53 -79 147q0 44 24 86q67 -81 161.5 -128.5t203.5 -53.5q-4 17 -4 41q0 73 51.5 125t125.5 52q76 0 130 -56q59 12 112 43 q-20 -64 -78 -98q51 6 102 28q-36 -54 -88 -92v-23q0 -71 -20.5 -142t-63 -136.5t-101.5 -115.5t-141.5 -80t-177.5 -30q-160 0 -272 72z" />
<glyph unicode="oak&#x20;studios" horiz-adv-x="1971" d="M0 322q0 -152 83 -244t223 -92t223 92t83 244t-83 244t-223 92t-223 -92t-83 -244zM80 322q0 68 17 120.5t41.5 82t57 48t59 24.5t51.5 6t51 -6t58.5 -24.5t57.5 -48t42 -82t17 -120.5t-17 -120.5t-42 -82t-57.5 -48.5t-58.5 -25t-51 -6t-51.5 6t-59 25t-57 48.5 t-41.5 82t-17 120.5zM689 192q0 -102 62.5 -154t166.5 -52q82 0 147.5 36t92.5 107h3v-129h130v54h-58v379q0 122 -64.5 173.5t-193.5 51.5q-110 0 -179.5 -46t-81.5 -147h80q17 138 187 138q180 0 180 -170v-47h-137q-40 0 -71.5 -2t-73.5 -8t-73 -19.5t-59 -33.5 t-43 -53.5t-15 -77.5zM769 187q0 145 243 145h149q0 -60 -12 -110.5t-38 -92.5t-71.5 -65.5t-107.5 -23.5q-68 0 -115.5 40t-47.5 107zM1339 809v55h146v-579l305 304h-85v54h266v-54h-99l-188 -186l220 -349h66v-54h-240v54h88l-187 297l-146 -144v-153h106v-54h-249v54h72 v755h-75z" />
<glyph unicode="earth" d="M0 432q0 179 126.5 305.5t305.5 126.5t305.5 -126.5t126.5 -305.5t-126.5 -305.5t-305.5 -126.5t-305.5 126.5t-126.5 305.5zM180 576q0 -81 58.5 -139.5t139.5 -58.5h3q-3 -14 -3 -27q0 -41 25.5 -73t64.5 -41v-129q0 -8 5 -13t13 -5q48 0 105 65t57 151q0 52 -37 89 t-89 37h-72q-40 0 -65 18t-25 45q0 19 13 32t32 13q20 0 38 -18t25 -18q15 0 25.5 10.5t10.5 25.5q0 36 -34 70q33 63 34 141q0 16 -15 18q-32 5 -57 5q-116 -4 -184 -56t-68 -142z" />
<glyph unicode="eye" d="M3 422q-7 10 0 20q46 69 122 138q64 60 135 96q88 44 172 44t172 -44q71 -36 135 -96q76 -69 122 -138q7 -10 0 -20q-46 -69 -122 -138q-64 -60 -135 -96q-88 -44 -172 -44t-172 44q-71 36 -135 96q-76 69 -122 138zM270 432q0 -68 47 -115t115 -47q67 0 114.5 47.5 t47.5 114.5t-47.5 114.5t-114.5 47.5t-114.5 -47.5t-47.5 -114.5z" />
<glyph unicode="avatar" d="M0 18v36q0 50 33.5 84.5t81 54t95 37t81 45.5t33.5 67q-4 4 -11.5 12.5t-26 38t-33 62.5t-26 85.5t-11.5 107.5q0 89 63.5 152.5t152.5 63.5t152.5 -63.5t63.5 -152.5q0 -55 -11 -107t-27 -86.5t-32 -61t-27 -39.5l-11 -12q0 -39 33.5 -67t81 -45.5t95 -37t81 -54 t33.5 -84.5v-36q0 -8 -5 -13t-13 -5h-828q-8 0 -13 5t-5 13z" />
<glyph unicode="credit&#x20;card" d="M0 162v324h864v-324q0 -22 -16 -38t-38 -16h-756q-22 0 -38 16t-16 38zM0 648v54q0 22 16 38t38 16h756q22 0 38 -16t16 -38v-54h-864z" />
<glyph unicode="computer" d="M0 216v594q0 22 16 38t38 16h756q22 0 38 -16t16 -38v-594q0 -22 -16 -38t-38 -16h-270v-52l151 -76q11 -3 11 -16q0 -8 -5 -13t-13 -5h-504q-14 0 -18 14q-2 14 10 20l152 76v52h-270q-22 0 -38 16t-16 38zM108 270h648v486h-648v-486z" />
<glyph unicode="cell&#x20;phone" d="M162 54v756q0 22 16 38t38 16h432q22 0 38 -16t16 -38v-756q0 -22 -16 -38t-38 -16h-432q-22 0 -38 16t-16 38zM252 216h360v504h-360v-504zM378 108q0 -22 16 -38t38 -16t38 16t16 38t-16 38t-38 16t-38 -16t-16 -38z" />
<glyph unicode="search" d="M0 72q0 30 21 51l245 244q-50 78 -50 173q0 134 95 229t229 95t229 -95t95 -229t-95 -229t-229 -95q-95 0 -173 50l-244 -245q-21 -21 -51 -21t-51 21t-21 51zM324 540q0 -89 63.5 -152.5t152.5 -63.5t152.5 63.5t63.5 152.5t-63.5 152.5t-152.5 63.5t-152.5 -63.5 t-63.5 -152.5z" />
<glyph unicode="link" d="M0 234q0 97 68 165l123 123q-6 -70 18 -135l-64 -64q-37 -37 -37 -89t37 -89t89 -37t89 37l134 134q37 37 37 89t-37 89q-16 16 -16 38.5t16 38.5t38.5 16t38.5 -16q68 -69 68 -166t-68 -165l-135 -135q-68 -68 -165 -68t-166 68q-68 69 -68 166zM262 496q0 97 68 165 l134 134q69 69 166 69t165 -69q69 -68 69 -165t-69 -166l-122 -122q6 69 -18 134l64 65q37 37 37 89t-37 89t-89 37t-89 -37l-135 -134q-37 -37 -37 -89t37 -90q16 -16 16 -38t-16 -38t-38 -16t-38 16q-68 69 -68 166z" />
<glyph unicode="back" d="M0 432q0 9 7 14l396 306q9 7 19 2t10 -16v-162q200 0 312.5 -106t119.5 -291q0 -13 -14 -17h-4q-7 0 -16 9q-47 59 -152 88t-246 29v-162q0 -11 -10 -16q-6 -2 -8 -2q-7 0 -11 4l-396 306q-7 5 -7 14z" />
<glyph unicode=" "  horiz-adv-x="278" />
<glyph unicode="&#x09;" horiz-adv-x="278" />
<glyph unicode="&#xa0;" horiz-adv-x="278" />
<glyph unicode="!" horiz-adv-x="278" d="M90 0v110h98v-110h-98zM90 425v303h98v-302l-20 -244h-59z" />
<glyph unicode="'" horiz-adv-x="178" d="M40 468v48q28 9 38 28t10 54v20h-48v110h98v-130q0 -51 -26.5 -85.5t-71.5 -44.5z" />
<glyph unicode="," horiz-adv-x="278" d="M88 0v110h98v-130q0 -51 -26.5 -85.5t-71.5 -44.5v48q28 9 38 28t10 54v20h-48z" />
<glyph unicode="." horiz-adv-x="278" d="M88 0v110h98v-110h-98z" />
<glyph unicode="0" horiz-adv-x="558" d="M35 354q0 166 62.5 260t180.5 94q243 0 243 -354q0 -178 -61.5 -271t-181.5 -93t-181.5 93t-61.5 271zM135 354q0 -146 34.5 -215t108.5 -69t108.5 69t34.5 215q0 144 -34 209t-109 65t-109 -65t-34 -209z" />
<glyph unicode="1" horiz-adv-x="558" d="M112 505v70h51q55 0 92.5 37.5t37.5 95.5h71v-708h-90v505h-162z" />
<glyph unicode="2" horiz-adv-x="558" d="M46 481q12 104 76.5 165.5t171.5 61.5q103 0 164 -64t61 -151q0 -65 -31 -107.5t-91 -84.5q-20 -14 -62.5 -41.5t-75 -50.5t-60.5 -47q-33 -29 -47 -73h347v-89h-446v67q0 23 9 46.5t28.5 47.5t37.5 43t50.5 44.5t52.5 40.5t58 41.5t54 37.5q38 27 57 55.5t19 69.5 q0 62 -34.5 98.5t-90.5 36.5q-68 0 -107.5 -39.5t-39.5 -107.5h-101z" />
<glyph unicode="3" horiz-adv-x="558" d="M24 222h101q14 -82 49.5 -117t99.5 -35q59 0 101.5 35.5t42.5 91.5q0 57 -40 96t-104 39h-56v80h56q58 0 85.5 30.5t27.5 74.5q0 51 -31.5 81t-83.5 30q-109 0 -128 -137h-98q13 106 66.5 161t161.5 55q96 0 154.5 -50.5t58.5 -133.5q0 -110 -100 -149q57 -17 94 -60.5 t37 -116.5q0 -97 -70 -152t-174 -55q-102 0 -168 60t-82 172z" />
<glyph unicode="4" horiz-adv-x="558" d="M34 170v101l303 427h90v-448h101v-80h-101v-170h-90v170h-303zM117 250h220v314z" />
<glyph unicode="5" horiz-adv-x="558" d="M24 189h100q13 -55 51.5 -87t88.5 -32q68 0 111.5 46t43.5 114q0 66 -49.5 111t-113.5 45q-78 0 -122 -64h-87l48 376h382v-80h-313l-21 -195l4 -1q51 44 135 44q101 0 169 -69.5t68 -169.5q0 -99 -67 -168t-189 -69q-92 0 -157 52t-82 147z" />
<glyph unicode="6" horiz-adv-x="558" d="M38 311q0 397 254 397q89 0 149.5 -56t66.5 -129h-90q-2 38 -38 71.5t-86 33.5q-140 0 -151 -236h4q64 62 140 62q98 0 164.5 -66t66.5 -167q0 -97 -63.5 -164t-166.5 -67q-115 0 -182.5 86t-67.5 235zM147 219q0 -66 38.5 -107.5t101.5 -41.5q64 0 97.5 41.5t33.5 107.5 q0 65 -34.5 110t-95.5 45q-73 0 -107 -47t-34 -108z" />
<glyph unicode="7" horiz-adv-x="558" d="M36 618v80h485v-80q-117 -143 -193 -308.5t-89 -309.5h-99q43 335 287 616v2h-391z" />
<glyph unicode="8" horiz-adv-x="558" d="M36 196q0 61 29 111t88 67q-100 43 -100 159q0 75 60.5 124.5t163.5 49.5q100 0 162 -50t62 -124q0 -112 -100 -159q59 -17 88 -66.5t29 -109.5q0 -85 -67 -147t-174 -62t-174 61.5t-67 145.5zM136 197q0 -51 41.5 -89t100.5 -38q67 0 103.5 37t36.5 90t-38.5 94 t-102.5 41q-66 0 -103.5 -40.5t-37.5 -94.5zM153 523q0 -46 33 -78.5t92 -32.5q57 0 90 32.5t33 78.5q0 44 -31.5 74.5t-91.5 30.5t-92.5 -30.5t-32.5 -74.5z" />
<glyph unicode="9" horiz-adv-x="558" d="M30 457q0 107 62.5 179t174.5 72q119 0 186.5 -85.5t67.5 -239.5q0 -74 -11 -137.5t-37.5 -124t-79 -96t-126.5 -35.5q-91 0 -155 46.5t-72 141.5h90q14 -54 52.5 -81t84.5 -27q57 0 93.5 35.5t50 86t13.5 116.5q-58 -78 -157 -78q-88 0 -162.5 65.5t-74.5 161.5z M130 469q0 -66 40 -112.5t97 -46.5q59 0 101.5 46.5t42.5 112.5t-42.5 112.5t-101.5 46.5q-57 0 -97 -46.5t-40 -112.5z" />
<glyph unicode=":" horiz-adv-x="278" d="M78 0v110h98v-110h-98zM78 413v110h98v-110h-98z" />
<glyph unicode="?" horiz-adv-x="556" d="M54 505q0 108 60 175.5t157 67.5q106 0 160.5 -60t54.5 -140q0 -44 -18 -79.5t-44 -60.5t-52.5 -50t-44.5 -58t-18 -73v-24h-87v59q0 40 25.5 79.5t56 66.5t56.5 65.5t26 77.5q0 55 -29 86t-86 31t-92.5 -45.5t-35.5 -117.5h-89zM217 0v110h98v-110h-98z" />
<glyph unicode="A" horiz-adv-x="670" d="M12 0l264 728h118l264 -728h-109l-75 213h-284l-69 -213h-109zM220 301h230l-114 339h-2z" />
<glyph unicode="B" horiz-adv-x="662" d="M74 0v728h300q79 0 137.5 -51t58.5 -122q0 -124 -96 -165q67 -17 100.5 -65t33.5 -116q0 -81 -62.5 -145t-145.5 -64h-326zM172 88h193q55 0 96 35t41 89q0 56 -36.5 94t-99.5 38h-194v-256zM172 428h183q46 0 80 34t34 79q0 41 -29.5 70t-85.5 29h-182v-212z" />
<glyph unicode="C" horiz-adv-x="714" d="M40 375q0 97 38 181t114 138t175 54q130 0 213 -68.5t96 -175.5h-98q-38 154 -211 154q-98 0 -159.5 -82.5t-61.5 -200.5q0 -148 65 -226.5t156 -78.5q88 0 144.5 56.5t66.5 136.5h98q-16 -126 -96.5 -204.5t-212.5 -78.5q-151 0 -239 105t-88 290z" />
<glyph unicode="D" horiz-adv-x="726" d="M74 0v728h296q141 0 220.5 -103t79.5 -259q0 -159 -78 -262.5t-214 -103.5h-304zM172 88h177q106 0 160.5 72t54.5 204q0 141 -53 208.5t-160 67.5h-179v-552z" />
<glyph unicode="E" horiz-adv-x="638" d="M74 0v728h494v-88h-396v-219h373v-88h-373v-245h414v-88h-512z" />
<glyph unicode="F" horiz-adv-x="588" d="M74 0v728h484v-88h-385v-219h335v-88h-335v-333h-99z" />
<glyph unicode="G" horiz-adv-x="772" d="M40 359q0 189 95 289t237 100q129 0 207.5 -68t104.5 -176h-92q-48 154 -220 154q-112 0 -169 -83t-57 -216q0 -143 60 -216t164 -73q83 0 152.5 72t69.5 162h-220v88h312v-392h-64l-28 97q-24 -48 -86 -82.5t-134 -34.5q-151 0 -241.5 106.5t-90.5 272.5z" />
<glyph unicode="H" horiz-adv-x="710" d="M74 0v728h99v-296h364v296h99v-728h-99v344h-364v-344h-99z" />
<glyph unicode="I" horiz-adv-x="258" d="M80 0v728h98v-728h-98z" />
<glyph unicode="J" horiz-adv-x="496" d="M12 153v88h98v-72q0 -47 31 -73t74 -26q41 0 75 26t34 76v556h98v-567q0 -77 -62 -129t-145 -52t-143 46.5t-60 126.5z" />
<glyph unicode="K" horiz-adv-x="666" d="M74 0v728h98v-347h3l342 347h130l-292 -289l301 -439h-124l-246 368l-114 -113v-255h-98z" />
<glyph unicode="L" horiz-adv-x="550" d="M74 0v728h98v-640h354v-88h-452z" />
<glyph unicode="M" horiz-adv-x="821" d="M74 0v728h151l185 -618h2l197 618h138v-728h-98v598h-3l-192 -598h-86l-193 598h-3v-598h-98z" />
<glyph unicode="N" horiz-adv-x="709" d="M74 0v728h120l339 -577h4v577h98v-728h-118l-341 579h-4v-579h-98z" />
<glyph unicode="O" horiz-adv-x="756" d="M40 368q0 169 92.5 274.5t245.5 105.5t245.5 -105.5t92.5 -274.5q0 -171 -92.5 -279.5t-246.5 -108.5t-245.5 108.5t-91.5 279.5zM146 368q0 -148 60 -223t172 -75t172 75t60 223q0 290 -232 290t-232 -290z" />
<glyph unicode="P" horiz-adv-x="626" d="M74 0v728h296q93 0 154.5 -65t61.5 -145q0 -85 -61 -149.5t-155 -64.5h-198v-304h-98zM172 392h188q46 0 83 37t37 89q0 51 -35.5 86.5t-84.5 35.5h-188v-248z" />
<glyph unicode="Q" horiz-adv-x="768" d="M41 368q0 169 92.5 274.5t245.5 105.5t245.5 -105.5t92.5 -274.5t-91 -277l99 -99l-62 -62l-102 102q-78 -52 -183 -52q-154 0 -245.5 108.5t-91.5 279.5zM147 368q0 -148 60 -223t172 -75q67 0 117 27l-76 76l62 62l78 -78q51 74 51 211q0 290 -232 290t-232 -290z" />
<glyph unicode="R" horiz-adv-x="674" d="M74 0v728h347q80 0 133.5 -60.5t53.5 -133.5q0 -67 -32.5 -120t-81.5 -63q98 -22 98 -149v-107q0 -60 35 -95h-110q-23 23 -23 91v112q0 41 -27 72t-79 31h-216v-306h-98zM172 394h214q49 0 82.5 37t33.5 90q0 49 -35.5 84t-80.5 35h-214v-246z" />
<glyph unicode="S" horiz-adv-x="654" d="M50 242h98q0 -76 49 -125t127 -49q168 0 168 119q0 30 -13.5 53.5t-30.5 37.5t-48.5 26.5t-50 17t-52.5 12.5q-228 52 -228 223q0 88 73.5 139.5t174.5 51.5q57 0 102.5 -15t72.5 -39t45 -55.5t25 -61.5t7 -60h-98q0 67 -45 105t-110 38q-63 0 -106 -24.5t-43 -77.5 q0 -28 12 -50.5t26.5 -35.5t44 -25t45 -16t48.5 -12q53 -13 93.5 -29.5t77 -43t56.5 -67t20 -91.5q0 -106 -72 -157t-194 -51q-110 0 -192 74t-82 188z" />
<glyph unicode="T" horiz-adv-x="588" d="M12 640v88h564v-88h-233v-640h-98v640h-233z" />
<glyph unicode="U" horiz-adv-x="689" d="M70 242v486h98v-501q0 -74 52 -115.5t119 -41.5q72 0 127 42t55 115v501h98v-486q0 -121 -85 -191.5t-195 -70.5q-104 0 -186.5 70.5t-82.5 191.5z" />
<glyph unicode="V" horiz-adv-x="630" d="M10 728h109l195 -602h2l195 602h109l-250 -728h-110z" />
<glyph unicode="W" horiz-adv-x="904" d="M10 728h110l134 -588l147 588h102l147 -588l134 588h110l-182 -728h-106l-154 597l-154 -597h-106z" />
<glyph unicode="X" horiz-adv-x="614" d="M10 0l245 372l-225 356h110l167 -279l167 279h110l-225 -356l245 -372h-121l-176 294l-176 -294h-121z" />
<glyph unicode="Y" horiz-adv-x="634" d="M0 728h121l190 -354h2l190 354h121l-263 -435v-293h-98v293z" />
<glyph unicode="Z" horiz-adv-x="613" d="M24 0v90l437 548v2h-407v88h523v-101l-428 -537v-2h428v-88h-553z" />
<glyph unicode="a" horiz-adv-x="547" d="M36 141q0 49 25.5 84t63 52.5t82 30.5t82 20t63 18.5t25.5 28.5q0 80 -118 80q-113 0 -113 -80h-90q0 75 61.5 116.5t142.5 41.5q86 0 146.5 -40t60.5 -118v-270q0 -14 10 -26.5t23 -12.5q8 0 30 11v-76q-42 -11 -63 -11q-38 0 -60.5 23t-22.5 67q-73 -90 -193 -90 q-69 0 -112 41.5t-43 109.5zM128 144q0 -39 29 -58.5t69 -19.5q115 0 151 96v125q-20 -9 -56 -18.5t-66.5 -18t-61 -21.5t-48 -34.5t-17.5 -50.5z" />
<glyph unicode="b" horiz-adv-x="547" d="M60 0v728h88v-277h2q54 82 151 82q96 0 153 -74t57 -193q0 -117 -53.5 -196.5t-149.5 -79.5q-110 0 -158 79h-2v-69h-88zM149 266q0 -200 133 -200q63 0 100 58t37 142q0 77 -36 133t-100 56q-60 0 -97 -52t-37 -137z" />
<glyph unicode="c" horiz-adv-x="524" d="M36 269q0 113 62.5 188.5t162.5 75.5q94 0 152 -50t71 -128h-92q-9 54 -40 77t-90 23q-67 0 -100.5 -52.5t-33.5 -133.5q0 -85 33 -144t100 -59q113 0 131 125l92 1q-8 -94 -66.5 -148t-156.5 -54q-73 0 -126 42.5t-76 104.5t-23 132z" />
<glyph unicode="d" horiz-adv-x="557" d="M36 266q0 117 60.5 192t156.5 75t150 -82h2v277h88v-728h-88v69h-2q-49 -79 -156 -79q-97 0 -154 79t-57 197zM128 266q0 -83 39.5 -141.5t104.5 -58.5q133 0 133 200q0 85 -37 137t-96 52q-65 0 -104.5 -56.5t-39.5 -132.5z" />
<glyph unicode="e" horiz-adv-x="546" d="M36 269q0 108 66 186t173 78q106 0 170.5 -72t64.5 -184v-35h-382q0 -70 42.5 -123t105.5 -53q110 0 142 104h80q-12 -84 -75 -132t-147 -48q-107 0 -173.5 81.5t-66.5 197.5zM128 312h290q0 62 -40 102.5t-107 40.5q-61 0 -102 -43t-41 -100z" />
<glyph unicode="f" horiz-adv-x="300" d="M12 447v76h88v120q0 47 31 76t83 29q27 0 69 -21v-72q-17 15 -44 15q-22 0 -35.5 -15t-13.5 -36v-96h88v-76h-88v-447h-90v447h-88z" />
<glyph unicode="g" horiz-adv-x="555" d="M34 267q0 115 55.5 190.5t163.5 75.5q90 0 149 -79h1v69h88v-523q0 -103 -66.5 -163t-155.5 -60q-171 0 -216 162h86q22 -53 50 -70.5t79 -17.5q55 0 95 41t40 97v80h-2q-57 -79 -147 -79q-106 0 -163 82.5t-57 194.5zM126 267q0 -83 34 -142t108 -59q135 0 135 203 q0 186 -134 186q-50 0 -83.5 -29.5t-46.5 -70t-13 -88.5z" />
<glyph unicode="h" horiz-adv-x="548" d="M64 0v728h88v-273h2q62 78 167 78q77 0 122 -36.5t45 -101.5v-395h-88v367q0 88 -103 88q-53 0 -99 -36.5t-46 -85.5v-333h-88z" />
<glyph unicode="i" horiz-adv-x="216" d="M64 0v523h88v-523h-88zM64 628v100h88v-100h-88z" />
<glyph unicode="j" horiz-adv-x="216" d="M-18 -137q24 -8 34 -8q48 0 48 69v599h88v-612q0 -65 -34 -99.5t-90 -34.5q-33 0 -46 11v75zM64 628v100h88v-100h-88z" />
<glyph unicode="k" horiz-adv-x="502" d="M64 0v728h87v-440h1l232 235h109l-193 -195l194 -328h-112l-139 270l-92 -87v-183h-87z" />
<glyph unicode="l" horiz-adv-x="216" d="M64 0v728h88v-728h-88z" />
<glyph unicode="m" horiz-adv-x="836" d="M64 0v523h88v-70h3q25 38 65.5 59t85.5 21q93 0 141 -80q26 39 70 60t91 21q73 0 120.5 -39t47.5 -101v-394h-88v365q0 44 -28.5 67t-63.5 23q-46 0 -89 -37t-43 -79v-339h-88v365q0 44 -28.5 67t-63.5 23q-46 0 -89 -37t-43 -79v-339h-88z" />
<glyph unicode="n" horiz-adv-x="547" d="M64 0v523h88v-70h2q25 39 69 59.5t93 20.5q75 0 123 -39.5t48 -102.5v-391h-88v360q0 39 -30 67t-62 28q-50 0 -96.5 -34.5t-58.5 -82.5v-338h-88z" />
<glyph unicode="o" horiz-adv-x="555" d="M34 260q0 116 66 194.5t179 78.5q111 0 176.5 -79t65.5 -194q0 -116 -65.5 -193t-177.5 -77q-113 0 -178.5 76.5t-65.5 193.5zM126 260q0 -90 39.5 -141t112.5 -51t112 51t39 141q0 85 -41 140t-109 55q-72 0 -112.5 -53.5t-40.5 -141.5z" />
<glyph unicode="p" horiz-adv-x="556" d="M64 -212v735h88v-73h1q48 84 162 84q97 0 152 -74.5t55 -193.5q0 -128 -58.5 -202t-165.5 -74q-35 0 -63 12.5t-42 25.5t-39 41h-2v-281h-88zM152 266q0 -200 146 -200q132 0 132 200q0 189 -132 189q-71 0 -108.5 -56t-37.5 -133z" />
<glyph unicode="q" horiz-adv-x="582" d="M34 266q0 125 64.5 196t178.5 71q87 0 151 -90h2v80h88v-735h-88v281h-2q-34 -39 -67.5 -59t-83.5 -20q-112 0 -177.5 77t-65.5 199zM126 266q0 -83 38 -141.5t113 -58.5q81 0 117 56.5t36 143.5q0 75 -40.5 132t-112.5 57q-78 0 -114.5 -54t-36.5 -135z" />
<glyph unicode="r" horiz-adv-x="318" d="M64 0v523h88v-69h3q22 40 49 59.5t71 19.5q22 0 41 -10v-86q-24 6 -40 6q-57 0 -90.5 -32.5t-33.5 -84.5v-326h-88z" />
<glyph unicode="s" horiz-adv-x="492" d="M40 169h88q0 -51 31 -77t82 -26q50 0 86.5 18t36.5 62q0 63 -133 94q-83 20 -128.5 54t-45.5 99q0 74 52 107t132 33q88 0 141.5 -38.5t53.5 -113.5l-88 1q0 73 -107 73q-46 0 -71 -16.5t-25 -44.5q0 -11 3.5 -20.5t12 -17t15 -12.5t22.5 -11l24 -9t29 -9l28 -8 q44 -14 65.5 -22.5t51.5 -26t43 -43t13 -60.5q0 -84 -59.5 -124.5t-151.5 -40.5q-87 0 -144 46.5t-57 132.5z" />
<glyph unicode="t" horiz-adv-x="284" d="M14 447v76h80v153h87v-153h80v-76h-80v-315q0 -64 63 -64q16 0 29 6v-75q-32 -9 -70 -9q-48 0 -78.5 25.5t-30.5 79.5v352h-80z" />
<glyph unicode="u" horiz-adv-x="554" d="M60 135v388h88v-349q0 -54 27.5 -80t69.5 -26q45 0 90.5 28t66.5 68v359h88v-523h-88v70h-3q-62 -80 -174 -80q-75 0 -120 37t-45 108z" />
<glyph unicode="v" horiz-adv-x="506" d="M6 523h100l147 -413l147 413h100l-202 -523h-90z" />
<glyph unicode="w" horiz-adv-x="726" d="M10 523h91l107 -393l107 393h96l107 -393l107 393h91l-151 -523h-89l-113 432l-113 -432h-89z" />
<glyph unicode="x" horiz-adv-x="496" d="M10 0l185 269l-175 254h108l120 -194l125 194h108l-180 -254l185 -269h-110l-128 202l-128 -202h-110z" />
<glyph unicode="y" horiz-adv-x="492" d="M10 524h99l137 -413h2l136 413h99l-231 -632q-22 -59 -54.5 -87t-66.5 -28t-61 12v76q16 -10 51 -10q38 0 61 76l20 69z" />
<glyph unicode="z" horiz-adv-x="506" d="M32 0v78l303 365v2h-284v78h404v-78l-306 -365v-2h316v-78h-433z" />
<glyph unicode="&#x2019;" horiz-adv-x="178" d="M40 468v48q28 9 38 28t10 54v20h-48v110h98v-130q0 -51 -26.5 -85.5t-71.5 -44.5z" />
<glyph unicode="&#xe000;" horiz-adv-x="525" d="M0 0v525h525v-525h-525z" />
</font>
</defs>
</svg>
